<?xml version="1.0" standalone="no"?>
<!DOCTYPE svg PUBLIC "-//W3C//DTD SVG 20010904//EN"
 "http://www.w3.org/TR/2001/REC-SVG-20010904/DTD/svg10.dtd">
<svg version="1.0" xmlns="http://www.w3.org/2000/svg"
 width="700.000000pt" height="700.000000pt" viewBox="0 0 700.000000 700.000000"
 preserveAspectRatio="xMidYMid meet">
<metadata>
Created by potrace 1.11, written by Peter Selinger 2001-2013
</metadata>
<g transform="translate(0.000000,700.000000) scale(0.100000,-0.100000)"
fill="#000000" stroke="none">
<path d="M4538 6996 c-1 -2 -38 -6 -80 -10 -43 -4 -83 -8 -90 -11 -7 -2 -31
-6 -53 -9 -104 -13 -344 -81 -470 -133 -378 -156 -733 -429 -966 -743 -164
-221 -281 -446 -354 -680 -38 -121 -67 -241 -81 -335 -3 -22 -8 -51 -10 -65
-18 -106 -23 -382 -10 -520 41 -428 210 -854 471 -1188 l42 -53 -256 -258
-256 -259 -38 20 c-58 29 -125 34 -188 13 -50 -17 -109 -74 -1110 -1076 -1165
-1165 -1097 -1090 -1086 -1209 7 -86 34 -124 205 -292 161 -159 194 -181 282
-184 110 -4 52 -57 1191 1081 641 641 1059 1066 1072 1090 29 55 29 154 0 210
l-21 41 258 255 258 255 58 -44 c173 -131 381 -248 580 -326 82 -32 285 -93
338 -101 12 -2 50 -9 86 -16 273 -49 574 -45 850 12 126 26 118 24 218 54 680
207 1235 733 1481 1404 45 122 93 303 110 416 6 39 13 86 17 105 10 59 12 421
3 495 -11 93 -31 219 -43 270 -15 69 -66 243 -86 290 -4 11 -14 36 -21 55 -38
107 -185 383 -241 455 -5 6 -38 51 -75 100 -93 125 -306 335 -445 438 -64 48
-119 87 -122 87 -3 0 -24 13 -48 29 -161 108 -509 251 -698 286 -14 3 -36 7
-50 10 -37 7 -128 23 -180 30 -46 7 -435 16 -442 11z m399 -369 c4 -3 33 -8
63 -12 30 -3 71 -10 90 -15 19 -5 58 -14 85 -21 264 -61 531 -198 775 -394 41
-33 202 -196 250 -253 177 -211 330 -527 392 -807 81 -367 48 -783 -90 -1130
-80 -201 -228 -439 -358 -574 l-43 -45 0 60 c0 34 -6 76 -14 95 -18 43 -71 98
-112 114 -23 10 -304 81 -395 100 -8 2 -55 13 -105 24 -49 12 -101 23 -114 26
-17 5 -22 11 -18 26 4 13 -8 40 -34 77 -48 68 -63 78 -95 63 l-24 -11 0 98 0
97 44 35 c79 63 120 151 125 270 1 24 5 30 24 30 43 0 57 22 88 140 45 171 46
197 14 244 -20 30 -25 45 -19 70 10 47 52 138 75 162 17 19 20 34 20 100 -4
237 -59 436 -149 536 -42 47 -94 82 -136 92 -16 4 -54 30 -84 57 -58 53 -99
77 -184 108 -89 33 -158 43 -283 43 -123 -1 -246 -15 -390 -48 -118 -26 -265
-74 -265 -86 0 -4 15 -18 33 -30 l33 -21 -66 -66 c-148 -146 -223 -332 -224
-556 -1 -89 2 -104 21 -129 41 -52 91 -226 65 -226 -23 0 -33 -72 -19 -135 49
-207 71 -255 117 -255 14 0 19 -12 24 -57 12 -106 34 -152 103 -222 63 -63 64
-64 64 -120 1 -129 1 -132 -20 -119 -29 18 -59 -3 -102 -71 -26 -41 -34 -63
-28 -74 8 -13 -6 -19 -84 -37 -50 -12 -103 -24 -117 -26 -14 -3 -52 -12 -85
-21 -33 -8 -67 -16 -75 -18 -8 -2 -46 -11 -85 -20 -38 -9 -79 -18 -90 -21 -97
-19 -169 -65 -201 -127 -9 -17 -19 -62 -23 -101 l-6 -71 -71 85 c-370 439
-525 1011 -430 1580 105 627 547 1185 1141 1442 84 36 263 96 315 104 14 3 32
7 40 9 8 3 33 7 55 10 22 4 47 8 55 10 8 2 49 7 90 11 41 3 76 8 78 9 5 5 351
-3 359 -8z"/>
</g>
</svg>
