<?xml version="1.0" encoding="iso-8859-1"?>
<!-- Generator: Adobe Illustrator 19.0.0, SVG Export Plug-In . SVG Version: 6.00 Build 0)  -->
<svg version="1.1" id="Layer_1" xmlns="http://www.w3.org/2000/svg" xmlns:xlink="http://www.w3.org/1999/xlink" x="0px" y="0px"
	 viewBox="0 0 512.003 512.003" style="enable-background:new 0 0 512.003 512.003;" xml:space="preserve">
<path style="fill:#F77935;" d="M503.187,81.861c-4.012-0.793-8.018,1.38-9.548,5.171l-39.929,98.955l-34.662-36.981
	c-2.075-2.214-5.174-3.157-8.129-2.476c-2.957,0.682-5.329,2.885-6.226,5.784l-48.352,156.29l-19.445-24.206
	c-1.536-1.911-3.82-3.068-6.27-3.175c-2.45-0.11-4.826,0.846-6.523,2.615l-24.949,26.021l-38.003-132.095
	c-1.026-3.566-4.242-6.058-7.952-6.16c-3.674-0.091-7.059,2.207-8.28,5.711l-42.893,123.001l-25.196-17.328
	c-1.923-1.322-4.304-1.796-6.59-1.315c-2.284,0.483-4.27,1.881-5.494,3.869l-40.625,65.993l-59.784-12.958
	c-4.359-0.945-8.705,1.629-9.973,5.903L10.578,492.061c-0.765,2.578-0.268,5.365,1.34,7.52c1.609,2.154,4.14,3.424,6.827,3.424
	H499.31c4.687,0,8.494-3.786,8.52-8.473l2.229-404.264C510.082,86.179,507.197,82.651,503.187,81.861z"/>
<path style="fill:#D9510D;" d="M503.187,81.861c-4.012-0.793-8.018,1.38-9.548,5.171l-25,61.956l-2.323,354.016h32.995
	c4.687,0,8.494-3.786,8.52-8.473l2.229-404.264C510.082,86.179,507.197,82.651,503.187,81.861z"/>
<path style="fill:#E93233;" d="M511.799,17.665c-0.03-4.663-3.803-8.437-8.466-8.467l-31.928-0.201c-0.018,0-0.036,0-0.055,0
	c-4.68,0-8.489,3.779-8.519,8.467c-0.03,4.705,3.761,8.544,8.466,8.573l11.406,0.072l-47.826,77.021l-33.336-29.512
	c-2.147-1.899-5.103-2.593-7.867-1.846c-2.766,0.746-4.972,2.833-5.871,5.554L346.73,201.669l-6.214-9.372
	c-1.479-2.23-3.919-3.636-6.59-3.796c-2.675-0.166-5.262,0.943-6.997,2.979l-13.164,15.453L258.511,52.14
	c-1.189-3.331-4.312-5.581-7.85-5.654c-3.55-0.068-6.75,2.047-8.075,5.327l-65.838,162.979l-21.282-10.641
	c-4.021-2.012-8.908-0.552-11.171,3.33l-42.446,72.827l-62.305-11.038c-4.316-0.763-8.499,1.864-9.687,6.078L0.322,380.12
	c-1.277,4.529,1.36,9.236,5.889,10.512c0.774,0.218,1.551,0.321,2.316,0.321c3.719,0,7.137-2.455,8.196-6.21l27.443-97.351
	l60.565,10.729c3.516,0.624,7.049-1.013,8.847-4.099l41.416-71.059l22.389,11.194c2.128,1.063,4.601,1.188,6.824,0.349
	c2.223-0.842,3.995-2.573,4.886-4.778l60.904-150.76l52.676,147.568c1.022,2.865,3.495,4.968,6.488,5.515
	c2.99,0.548,6.049-0.54,8.021-2.855l15.385-18.059l9.652,14.559c1.802,2.718,4.999,4.166,8.233,3.736
	c3.233-0.433,5.936-2.674,6.958-5.772l42.52-128.716l31.215,27.634c1.879,1.664,4.399,2.415,6.881,2.05
	c2.484-0.364,4.681-1.803,6.005-3.935l50.865-81.914l0.069,10.919c0.03,4.687,3.839,8.466,8.519,8.466c0.018,0,0.037,0,0.055,0
	c4.705-0.03,8.495-3.868,8.466-8.573L511.799,17.665z"/>
<g>
</g>
<g>
</g>
<g>
</g>
<g>
</g>
<g>
</g>
<g>
</g>
<g>
</g>
<g>
</g>
<g>
</g>
<g>
</g>
<g>
</g>
<g>
</g>
<g>
</g>
<g>
</g>
<g>
</g>
</svg>
